<svg xmlns="http://www.w3.org/2000/svg" width="16" height="15.999" viewBox="0 0 16 15.999">
  <path id="Button_Maximize_Map" data-name="Button Maximize Map" d="M16,42.294v4.835a.824.824,0,0,1-.827.827H10.34a1.144,1.144,0,0,1-1.058-.707A1.16,1.16,0,0,1,9.53,46l1.076-1.076L8.017,42.465,5.461,45.022,6.537,46.1a1.143,1.143,0,0,1,.248,1.248,1.119,1.119,0,0,1-1.058.674H.86a.824.824,0,0,1-.827-.827V42.358A1.144,1.144,0,0,1,.74,41.3a.629.629,0,0,1,.406-.12,1.145,1.145,0,0,1,.81.335l1.076,1.076,2.557-2.557L3.032,37.48,1.956,38.554A1.143,1.143,0,0,1,.708,38.8,1.157,1.157,0,0,1,0,37.713V32.878a.824.824,0,0,1,.827-.827H5.663a1.144,1.144,0,0,1,1.058.707.453.453,0,0,1,.119.374,1.145,1.145,0,0,1-.335.81L5.462,35.05l2.557,2.557,2.556-2.557L9.5,33.975a1.145,1.145,0,0,1,.81-1.955h4.835a.824.824,0,0,1,.827.827v4.835a1.144,1.144,0,0,1-.707,1.058,1.16,1.16,0,0,1-1.248-.248L12.94,37.415l-2.556,2.556,2.557,2.557,1.076-1.076a1.143,1.143,0,0,1,1.248-.248A1.219,1.219,0,0,1,16,42.294Z" transform="translate(-0.001 -32.02)" fill="#fff"/>
</svg>
