<?xml version="1.0" encoding="UTF-8"?>
<svg id="Layer_1" data-name="Layer 1" xmlns="http://www.w3.org/2000/svg" viewBox="0 0 384 521.44">
  <defs>
    <style>
      .cls-1 {
        fill: #000;
        font-family: FranklinGothic-Heavy, 'Franklin Gothic Heavy';
        font-size: 200px;
        font-weight: 800;
      }

      .cls-2 {
        fill: #fff;
        stroke-width: 0px;
      }
    </style>
  </defs>
  <path class="cls-2" d="M224,137.44V9.44H48C21.49,9.44,0,30.93,0,57.44v416c0,26.5,21.49,48,48,48h288c26.51,0,48-21.49,48-48V169.44h-127.1c-18.6,0-32.9-14.3-32.9-32ZM154.1,363.24c7.81,7.81,7.81,20.5,0,28.31-3.9,3.99-9,5.89-14.1,5.89s-10.23-1.94-14.14-5.84l-48-48c-7.81-7.81-7.81-20.5,0-28.31l48-48c7.81-7.81,20.47-7.81,28.28,0,7.81,7.81,7.81,20.5,0,28.31l-33.84,33.84,33.8,33.8ZM306.1,315.24c7.81,7.81,7.81,20.5,0,28.31l-48,48c-3.9,3.99-9,5.89-14.1,5.89s-10.23-1.94-14.14-5.84c-7.81-7.81-7.81-20.5,0-28.31l33.84-33.85-33.86-33.84c-7.81-7.81-7.81-20.5,0-28.31s20.47-7.81,28.28,0l47.98,47.95ZM256,9.44v128h128L256,9.44Z"/>
  <text class="cls-1" transform="translate(20.37 166.7)"><tspan x="0" y="0">S</tspan></text>
</svg>