<?xml version="1.0" encoding="UTF-8"?>
<svg id="Layer_1" data-name="Layer 1" xmlns="http://www.w3.org/2000/svg" viewBox="0 0 638.23 512">
  <defs>
    <style>
      .cls-1 {
        fill: #fff;
        stroke-width: 0px;
      }
    </style>
  </defs>
  <path class="cls-1" d="M447.1,224c0-12.56-4.78-25.13-14.35-34.76L257.85,14.34c-8.75-9.55-21.35-14.34-34.75-14.34-11.7,0-24.2,4.79-33.9,14.35L14.35,189.2c-9.57,9.7-14.35,22.2-14.35,33.9,0,12.56,4.78,25.17,14.35,34.8l174.9,174.9c9.62,9.56,22.19,14.35,34.75,14.35s25.13-4.78,34.75-14.35l174.9-174.9c9.55-8.8,13.45-21.3,13.45-33.9ZM96,248c-13.25,0-23.1-10.75-23.1-23.1s10.75-23.1,23.1-23.1,24,9,24,22.2-10.7,24-24,24ZM224,376c-13.25,0-23.1-10.75-23.1-23.1s10.75-23.1,23.1-23.1,23.1,10.75,23.1,23.1-9.8,23.1-23.1,23.1ZM224,248c-13.25,0-23.1-10.75-23.1-23.1s10.75-23.1,23.1-23.1,24,9,24,22.2-10.7,24-24,24ZM224,120c-13.25,0-23.1-10.75-23.1-23.1s10.75-23.1,23.1-23.1,23.1,10.75,23.1,23.1-9.8,23.1-23.1,23.1ZM352,248c-13.25,0-23.1-10.75-23.1-23.1s10.75-23.1,23.1-23.1,23.1,10.75,23.1,23.1-9.8,23.1-23.1,23.1ZM591.1,192h-118.7c4.42,10.27,6.6,21.25,6.6,32.23,0,20.7-7.86,41.38-23.63,57.14l-136.2,136.2v46.37c.83,26.56,22.33,48.06,48.83,48.06h223.1c26.5,0,47.1-21.5,47.1-47.1v-224.9c.9-26.5-19.7-48-47.1-48ZM479.1,376c-13.25,0-23.1-10.75-23.1-23.1s10.75-23.1,23.1-23.1,23.1,10.75,23.1,23.1-9,23.1-23.1,23.1Z"/>
</svg>