<svg xmlns="http://www.w3.org/2000/svg" width="16" height="15.27" viewBox="0 0 16 15.27">
  <path id="Button_Roll_Meta" data-name="Button Roll Meta" d="M16.135,9.463A.126.126,0,0,1,16,9.344V4.489a.127.127,0,0,1,.133-.12.146.146,0,0,1,.069.017l2.554,1.345L16.247,9.379A.112.112,0,0,1,16.135,9.463Zm7.045,2.622-6.94-.658A.251.251,0,0,1,16,11.189a.218.218,0,0,1,.039-.124l3.515-4.649Zm-6.677.444a.125.125,0,0,1,.131-.121h.017l6.787.665v1.958a.23.23,0,0,1-.238.238.29.29,0,0,1-.112-.023l-6.48-2.614C16.556,12.61,16.5,12.568,16.5,12.529ZM16.6,3.492a.113.113,0,0,1,0-.2L21.621.35c.016-.022.09-.032.133-.032a.259.259,0,0,1,.267.239.22.22,0,0,1-.041.126L19.317,4.945Zm3.762,1.73L23.546.2a.558.558,0,0,1,.878.028L27.61,5.25H20.36Zm6.987.954L24,11.417l-3.347-5.24Zm3.99,6.2a.125.125,0,0,1,.131.121.114.114,0,0,1-.075.105l-6.48,2.614a.292.292,0,0,1-.112.022A.254.254,0,0,1,24.534,15V13.046l6.787-.664C31.323,12.407,31.33,12.38,31.337,12.38Zm.623-1.318a.231.231,0,0,1,.04.125.25.25,0,0,1-.238.238l-6.94.658,3.62-5.67ZM26.02.682a.22.22,0,0,1-.041-.126.259.259,0,0,1,.267-.239.292.292,0,0,1,.134.033l5.027,2.94a.113.113,0,0,1,0,.2L28.683,4.945Zm5.817,3.687a.127.127,0,0,1,.133.12V9.344a.127.127,0,0,1-.135.119.132.132,0,0,1-.112-.057L29.214,5.759l2.554-1.345C31.82,4.375,31.843,4.369,31.837,4.369Z" transform="translate(-16)" fill="#fff"/>
</svg>
