<svg xmlns="http://www.w3.org/2000/svg" width="16" height="12.444" viewBox="0 0 16 12.444">
  <path id="Button_Show" data-name="Button Show" d="M15.9,37.725C14.4,34.319,11.414,32,8,32S1.6,34.322.1,37.725a1.705,1.705,0,0,0-.1.5,1.424,1.424,0,0,0,.1.473c1.507,3.43,4.49,5.749,7.9,5.749s6.4-2.322,7.9-5.725a1.886,1.886,0,0,0,.1-.5A1.713,1.713,0,0,0,15.9,37.725Zm-3.9.5a4,4,0,1,1-4-4A4,4,0,0,1,12,38.222ZM8,35.556a1.969,1.969,0,0,0-.236.022A1.73,1.73,0,0,1,8,36.444a1.778,1.778,0,0,1-1.778,1.778,1.706,1.706,0,0,1-.869-.236c-.008.083-.019.169-.019.236A2.667,2.667,0,1,0,8,35.556Z" transform="translate(0 -32)" fill="#fff"/>
</svg>
