<?xml version="1.0" encoding="UTF-8"?>
<svg id="Layer_1" data-name="Layer 1" xmlns="http://www.w3.org/2000/svg" viewBox="0 0 448 512">
  <defs>
    <style>
      .cls-1 {
        fill: #fff;
        stroke-width: 0px;
      }
    </style>
  </defs>
  <path class="cls-1" d="M32,464c0,26.5,21.5,48,48,48h288c26.5,0,48-21.5,48-48V128H32v336ZM304,208c0-8.9,7.1-16,16-16s16,7.12,16,16v224c0,8.88-7.12,16-16,16s-16-7.12-16-16v-224ZM208,208c0-8.9,7.1-16,16-16s16,7.12,16,16v224c0,8.88-7.12,16-16,16s-16-7.12-16-16v-224ZM112,208c0-8.9,7.1-16,16-16s16,7.12,16,16v224c0,8.9-7.1,16-16,16s-16-7.12-16-16v-224ZM432,32h-112l-11.58-23.16c-2.71-5.42-8.25-8.84-14.31-8.84h-140.21c-6.06,0-11.6,3.42-14.31,8.84l-11.59,23.16H16C7.16,32,0,39.17,0,48v32c0,8.84,7.16,16,16,16h416c8.84,0,16-7.16,16-16v-32c0-8.84-7.2-16-16-16Z"/>
</svg>