<svg xmlns="http://www.w3.org/2000/svg" width="16" height="13.714" viewBox="0 0 16 13.714">
  <path id="Button_Menu_Hamburger" data-name="Button Menu Hamburger" d="M14.857,69.714H1.111a1.143,1.143,0,0,0,0,2.286H14.825a1.143,1.143,0,1,0,.032-2.286Zm0,5.714H1.111A1.129,1.129,0,0,0,0,76.539a1.187,1.187,0,0,0,1.111,1.175H14.825a1.143,1.143,0,1,0,.032-2.286Zm0-11.429H1.111A1.13,1.13,0,0,0,0,65.111a1.188,1.188,0,0,0,1.111,1.175H14.825A1.143,1.143,0,1,0,14.857,64Z" transform="translate(0 -64)" fill="#fff"/>
</svg>
