<svg xmlns="http://www.w3.org/2000/svg" width="16" height="14" viewBox="0 0 16 14">
  <path id="Button_Tool_Select_Marquee" data-name="Button Tool Select Marquee" d="M15.5,35a.5.5,0,0,0,.5-.5v-2a.5.5,0,0,0-.5-.5h-2a.5.5,0,0,0-.5.5V33H3v-.5a.5.5,0,0,0-.5-.5H.5a.5.5,0,0,0-.5.5v2a.5.5,0,0,0,.5.5H1v8H.5a.5.5,0,0,0-.5.5v2a.5.5,0,0,0,.5.5h2a.5.5,0,0,0,.5-.5V45H13v.5a.5.5,0,0,0,.5.5h2a.5.5,0,0,0,.5-.5v-2a.5.5,0,0,0-.5-.5H15V35ZM3,39.5v-4a.5.5,0,0,1,.5-.5h5a.5.5,0,0,1,.5.5v4a.5.5,0,0,1-.5.5h-5A.5.5,0,0,1,3,39.5Zm10,3a.5.5,0,0,1-.5.5h-5a.5.5,0,0,1-.5-.5V41H9.25a.748.748,0,0,0,.75-.75V38h2.5a.5.5,0,0,1,.5.5Z" transform="translate(0 -32)" fill="#fff"/>
</svg>
