<?xml version="1.0" encoding="UTF-8"?>
<svg id="Layer_1" data-name="Layer 1" xmlns="http://www.w3.org/2000/svg" viewBox="0 0 512 512">
  <defs>
    <style>
      .cls-1 {
        fill: #fff;
        stroke-width: 0px;
      }
    </style>
  </defs>
  <path class="cls-1" d="M256,512c141.4,0,256-114.6,256-256S397.4,0,256,0,0,114.6,0,256s114.6,256,256,256ZM129.2,265.9c2.5-6,8.3-9.9,14.8-9.9h64v-96c0-17.67,14.33-32,32-32h32c17.67,0,32,14.33,32,32v96h64c6.47,0,12.31,3.89,14.78,9.88,2.48,5.98,1.11,12.86-3.47,17.44l-112,112c-6.25,6.25-16.38,6.25-22.62,0l-112-112c-4.59-4.61-5.99-11.42-3.49-17.42Z"/>
</svg>