<svg xmlns="http://www.w3.org/2000/svg" width="16" height="14.025" viewBox="0 0 16 14.025">
  <path id="Button_Export_Image_Composite" data-name="Button Export Image Composite" d="M13.988,32H1.967A2,2,0,0,0-.009,34V44.021a2,2,0,0,0,1.975,2H13.987a2,2,0,0,0,2-2V34A1.986,1.986,0,0,0,13.988,32ZM3.469,34a1.5,1.5,0,0,1,1.5,1.5,1.485,1.485,0,0,1-1.5,1.5,1.485,1.485,0,0,1-1.5-1.5A1.521,1.521,0,0,1,3.469,34Zm10.487,9.755a.5.5,0,0,1-.441.263H2.559a.5.5,0,0,1-.4-.8L4.345,40.22a.5.5,0,0,1,.809,0L6.17,41.613l2.921-4.355a.473.473,0,0,1,.417-.25.5.5,0,0,1,.417.223l4.007,6.011A.5.5,0,0,1,13.956,43.758Z" transform="translate(0.009 -32)" fill="#fff"/>
</svg>
