<svg xmlns="http://www.w3.org/2000/svg" width="17" height="13.58" viewBox="0 0 17 13.58">
  <path id="Button_Hide" data-name="Button Hide" d="M8.635,9.339,6,7.269A2.549,2.549,0,0,0,8.5,9.352C8.547,9.352,8.59,9.342,8.635,9.339ZM8.5,10.628a3.822,3.822,0,0,1-3.826-3.8c0-.18.029-.353.029-.527L2.157,4.262A10.6,10.6,0,0,0,.939,6.35,1.378,1.378,0,0,0,.823,6.8a1.363,1.363,0,0,0,.092.452c1.441,3.279,4.294,5.476,7.559,5.476a7.285,7.285,0,0,0,3.4-.854L9.9,10.325A3.394,3.394,0,0,1,8.5,10.628Zm8.258,1.836-2.75-2.155a10.414,10.414,0,0,0,2.051-3.032,1.365,1.365,0,0,0,.092-.452,1.363,1.363,0,0,0-.092-.452C14.617,3.093,11.765.9,8.5.9A7.465,7.465,0,0,0,3.961,2.48L1.028.136a.638.638,0,0,0-.787,1l15.705,12.3a.637.637,0,0,0,.9-.108A.59.59,0,0,0,16.757,12.464ZM12.3,6.8a3.726,3.726,0,0,1-.477,1.814l-1.024-.8A2.458,2.458,0,0,0,11.026,6.8,2.562,2.562,0,0,0,8.5,4.25c-.061,0-.148.012-.225.02a1.727,1.727,0,0,1,.02,1.579L5.938,3.983A3.79,3.79,0,0,1,12.3,6.8Z" transform="translate(0.003)" fill="#fff"/>
</svg>
