<svg xmlns="http://www.w3.org/2000/svg" width="16" height="14.222" viewBox="0 0 16 14.222">
  <path id="Button_Generate_Map" data-name="Button Generate Map" d="M8,0A3.333,3.333,0,0,0,4.667,3.333c0,1.344.468,1.719,2.992,5.375a.417.417,0,0,0,.685,0c2.521-3.656,2.99-4.031,2.99-5.375A3.333,3.333,0,0,0,8,0ZM8,4.889A1.333,1.333,0,1,1,9.333,3.556,1.334,1.334,0,0,1,8,4.889ZM.279,6.322A.443.443,0,0,0,0,6.733v7.042a.446.446,0,0,0,.611.412l3.833-1.743V5.594a5.484,5.484,0,0,1-.461-.942ZM9.072,9.217a1.305,1.305,0,0,1-2.146,0c-.448-.651-1.457-2.087-1.593-2.281v5.486l5.333,1.8V6.933C10.531,7.128,9.522,8.564,9.072,9.217Zm6.319-4.739L11.556,6.222v8l4.164-1.877A.47.47,0,0,0,16,11.933V4.889A.434.434,0,0,0,15.392,4.478Z" fill="#fff"/>
</svg>
