<svg xmlns="http://www.w3.org/2000/svg" width="16" height="20.806" viewBox="0 0 16 20.806">
  <path id="Button_Tool_Card" data-name="Button Tool Card" d="M894.73,466.361v-7.9A2.449,2.449,0,0,1,896.777,456a2.723,2.723,0,0,1,.469-.038q5.483,0,10.966,0a2.458,2.458,0,0,1,2.517,2.508v15.8a2.451,2.451,0,0,1-2.04,2.46,2.607,2.607,0,0,1-.469.038q-5.49,0-10.981,0a2.457,2.457,0,0,1-2.509-2.514v-7.883Zm.981-5.771q1,1.726,1.971,3.415h3.965q.989-1.711,1.971-3.415l-1.976-3.422h-3.957q-.985,1.706-1.976,3.422Zm7.017,6.139q3.173,0,6.344,0a.6.6,0,0,0,.617-.365.777.777,0,0,0-.088-.811.662.662,0,0,0-.568-.221q-6.3,0-12.6,0H896.3a.564.564,0,0,0-.472.26.787.787,0,0,0-.039.8.607.607,0,0,0,.61.33q3.166-.005,6.33,0Zm0,8.091h6.256c.059,0,.118,0,.177,0a.561.561,0,0,0,.535-.376.7.7,0,0,0-.663-1.021c-4.2.011-8.4.006-12.6.006H896.3a.6.6,0,0,0-.557.43.7.7,0,0,0,.7.967c2.1-.016,4.19-.006,6.285-.006Zm-.012-5.393h6.359a.616.616,0,0,0,.636-.405.8.8,0,0,0-.184-.844.752.752,0,0,0-.511-.148q-6.284,0-12.57,0c-.049,0-.1,0-.148,0a.6.6,0,0,0-.556.435c-.138.554.131.969.7.965,2.091-.015,4.18-.006,6.27-.006Zm.032,1.3h-6.359a.7.7,0,0,0-.006,1.4h12.7a.624.624,0,0,0,.628-.419.8.8,0,0,0-.2-.841.72.72,0,0,0-.485-.137h-6.285Zm4.239-13.541h-2.079a.93.93,0,0,0-.219.017.656.656,0,0,0-.477.787.62.62,0,0,0,.642.549q2.108,0,4.218,0a.678.678,0,1,0-.005-1.355h-2.079Zm-.006,6.767H909.1a.614.614,0,0,0,.647-.649.621.621,0,0,0-.63-.7c-1.43,0-2.861,0-4.291,0a.581.581,0,0,0-.478.223.725.725,0,0,0-.079.78.589.589,0,0,0,.6.349c.7,0,1.406,0,2.109,0Zm0-4.057c-.653,0-1.307-.007-1.96,0-.437,0-.845.182-.833.695.012.484.427.648.841.658.581.013,1.164,0,1.746,0h1.865c.483,0,1.078.011,1.117-.628.037-.591-.435-.726-.912-.724C908.224,459.9,907.6,459.9,906.981,459.9Z" transform="translate(-894.73 -455.955)" fill="#fff"/>
</svg>
