<svg xmlns="http://www.w3.org/2000/svg" width="16" height="12" viewBox="0 0 16 12">
  <path id="Button_Tool_Select_Single" data-name="Button Tool Select Single" d="M7,72a1,1,0,0,0,1,1h2a1,1,0,0,0,0-2H8A1,1,0,0,0,7,72Zm1.363-2H11a1,1,0,0,0,0-2H8.5v1.25A2.2,2.2,0,0,1,8.363,70ZM8.5,67H15a1,1,0,0,0,0-2H8.475a2.228,2.228,0,0,1,.025.25ZM10,75a1,1,0,0,0-1-1H7a1,1,0,1,0,0,2H9A1,1,0,0,0,10,75ZM6.316,73.119A2.185,2.185,0,0,1,6,72a1.978,1.978,0,0,1,.078-.517A2.244,2.244,0,0,1,4,69.25V66.972a.491.491,0,0,1,.472-.472c.247,0,.528.225.5.472v2.179A1.3,1.3,0,0,0,6.25,70.472,1.226,1.226,0,0,0,7.5,69.25v-4A1.25,1.25,0,0,0,6.25,64H4.269A3.267,3.267,0,0,0,1.64,65.337L.813,66.475A4.259,4.259,0,0,0,0,68.978V71.75A4.25,4.25,0,0,0,4.25,76H5.278A1.983,1.983,0,0,1,5,75,2.011,2.011,0,0,1,6.316,73.119Z" transform="translate(0 -64)" fill="#fff"/>
</svg>
