<?xml version="1.0" encoding="UTF-8"?>
<svg id="Layer_1" data-name="Layer 1" xmlns="http://www.w3.org/2000/svg" viewBox="0 0 512 448">
  <defs>
    <style>
      .cls-1 {
        fill: #fff;
        stroke-width: 0px;
      }
    </style>
  </defs>
  <path class="cls-1" d="M496,96c8.8,0,16-7.2,16-16V16c0-8.84-7.2-16-16-16h-64c-8.8,0-16,7.16-16,16v16H96v-16c0-8.84-7.16-16-16-16H16C7.16,0,0,7.16,0,16v64c0,8.8,7.16,16,16,16h16v256h-16c-8.84,0-16,7.2-16,16v64c0,8.8,7.16,16,16,16h64c8.84,0,16-7.2,16-16v-16h320v16c0,8.84,7.16,16,16,16h64c8.84,0,16-7.16,16-16v-64c0-8.84-7.16-16-16-16h-16V96h16ZM381.93,287.95c17.12,17.12,17.12,44.87,0,61.99h0c-17.12,17.12-44.87,17.12-61.99,0l-63.95-63.95-63.95,63.95c-17.12,17.12-44.87,17.12-61.99,0s-17.12-44.87,0-61.99l63.95-63.95-63.95-63.95c-17.12-17.12-17.12-44.87,0-61.99s44.87-17.12,61.99,0l63.95,63.95,63.95-63.95c17.12-17.12,44.87-17.12,61.99,0h0c17.12,17.12,17.12,44.87,0,61.99l-63.95,63.95,63.95,63.95Z"/>
</svg>