<svg xmlns="http://www.w3.org/2000/svg" width="16" height="9.764" viewBox="0 0 16 9.764">
  <g id="icons_game_maatlock-01" transform="translate(-883.24 -488.71)">
    <path id="Path_4" data-name="Path 4" d="M883.24,489.111a.635.635,0,0,1,.681-.4q7.346.009,14.691,0c.43,0,.627.194.627.62,0,.091,0,.182,0,.273a.524.524,0,0,1-.5.5c-.046,0-.092,0-.138,0q-7.34,0-14.678,0a.635.635,0,0,1-.681-.4Z" transform="translate(0 0)" fill="#fff"/>
    <path id="Path_5" data-name="Path 5" d="M883.24,568.911a.635.635,0,0,1,.681-.4q7.346.009,14.691,0c.43,0,.627.194.627.62,0,.091,0,.182,0,.273a.524.524,0,0,1-.5.5c-.046,0-.092,0-.138,0q-7.34,0-14.678,0a.635.635,0,0,1-.681-.4Z" transform="translate(0 -71.432)" fill="#fff"/>
    <path id="Path_6" data-name="Path 6" d="M906.233,523.74h5.684a.532.532,0,0,1,.6.593c0,.412,0,.826,0,1.238a.527.527,0,0,1-.588.573H900.54a.527.527,0,0,1-.59-.581V524.3a.522.522,0,0,1,.573-.56h5.709Z" transform="translate(-14.983 -31.349)" fill="#fff"/>
  </g>
</svg>
