<svg xmlns="http://www.w3.org/2000/svg" width="16" height="14.935" viewBox="0 0 16 14.935">
  <path id="Button_Tool_Refresh_Image" data-name="Button Tool Refresh Image" d="M30.463,32.261l-1.617,1.618A7.213,7.213,0,0,0,17.119,37a1.067,1.067,0,0,0,2.03.656,5.084,5.084,0,0,1,8.19-2.27l-1.5,1.473A.914.914,0,0,0,26.48,38.4h4.9A.638.638,0,0,0,32,37.759V32.9A.9.9,0,0,0,30.463,32.261Zm-.27,8.321a1.066,1.066,0,0,0-1.343.686,5.084,5.084,0,0,1-8.19,2.267l1.473-1.473a.9.9,0,0,0-.613-1.533h-4.9a.638.638,0,0,0-.622.637v4.863a.9.9,0,0,0,1.536.636l1.617-1.618a7.188,7.188,0,0,0,11.7-3.125A1.012,1.012,0,0,0,30.193,40.582Z" transform="translate(-16 -31.995)" fill="#fff"/>
</svg>
