<?xml version="1.0" encoding="UTF-8"?>
<svg id="Layer_1" data-name="Layer 1" xmlns="http://www.w3.org/2000/svg" viewBox="0 0 480 480">
  <defs>
    <style>
      .cls-1 {
        fill: #fff;
        stroke-width: 0px;
      }
    </style>
  </defs>
  <path class="cls-1" d="M170.81,10.24C103.1,30.6,48.09,80.01,20.1,144h99.97c9.63-55.9,27.53-102.56,50.73-133.76ZM144.01,240c0,22.55,1.28,43.86,3.62,64h184.8c2.35-20.14,3.62-41.45,3.62-64s-1.28-43.86-3.62-64h-184.82c-2.3,20.1-3.6,41.5-3.6,64ZM327.61,144C311.36,55.96,274.24,0,240.03,0s-71.33,55.96-87.63,144h175.2ZM459.9,144c-27.98-63.99-83-113.4-150.7-133.8,23.2,31.24,41.1,77.9,50.7,133.8h100ZM309.21,469.8c67.7-20.4,122.7-70.7,150.7-133.8h-99.97c-9.63,55.9-27.53,102.6-50.73,133.8ZM471.11,176h-106.6c2.25,20.5,3.48,41.84,3.48,64s-1.24,43.5-3.48,64h106.6c5.64-20.4,8.89-41.8,8.89-64s-3.29-43.6-8.89-64ZM152.4,336c16.25,88.04,53.37,144,87.57,144s71.32-55.96,87.57-144h-175.14ZM112.01,240c0-22.16,1.24-43.5,3.49-64H8.9C3.25,196.4,0,217.8,0,240s3.25,43.6,8.9,64h106.61c-2.3-20.5-3.5-41.8-3.5-64ZM20.1,336c27.98,63.99,82.1,113.4,150.7,133.8-23.2-31.2-41.1-77.9-50.7-133.8H20.1Z"/>
</svg>