<svg xmlns="http://www.w3.org/2000/svg" width="16" height="15.971" viewBox="0 0 16 15.971">
  <path id="Icon_Notes_Active" data-name="Icon Notes Active" d="M13.717,7.523,10.1,8.986h2.943a12.035,12.035,0,0,1-.807,1.342L8.1,11.981h2.672c-1.851,1.644-4.5,2.506-8.251,1.648L.4,15.754a.748.748,0,0,1-1.059,0,.748.748,0,0,1,0-1.059l7.9-7.9a.493.493,0,0,0-.035-.654.5.5,0,0,0-.706,0L1.243,11.4C-.088,1.812,10.591.255,14.085,0a.962.962,0,0,1,1.031,1.031A22.79,22.79,0,0,1,13.717,7.523Z" transform="translate(0.881 -0.002)" fill="#f06"/>
</svg>
